<svg xmlns="http://www.w3.org/2000/svg" xmlns:xlink="http://www.w3.org/1999/xlink" width="200" zoomAndPan="magnify" viewBox="0 0 150 149.999998" height="200" preserveAspectRatio="xMidYMid meet" version="1.0"><defs><clipPath id="4b5471674c"><path d="M 0 84 L 150 84 L 150 132.375 L 0 132.375 Z M 0 84 " clip-rule="nonzero"/></clipPath><clipPath id="551bd7b9a2"><path d="M 71 105 L 73 105 L 73 105.929688 L 71 105.929688 Z M 71 105 " clip-rule="nonzero"/></clipPath><clipPath id="41bc346612"><path d="M 72.195312 105.636719 L 71.753906 105.929688 C 71.753906 105.929688 71.898438 105.929688 71.898438 105.929688 Z M 72.195312 105.636719 " clip-rule="nonzero"/></clipPath><clipPath id="6f8aa24a94"><path d="M 75 108 L 76.476562 108 L 76.476562 108.882812 L 75 108.882812 Z M 75 108 " clip-rule="nonzero"/></clipPath><clipPath id="198fe4d31e"><path d="M 75.886719 108.441406 L 76.328125 108.144531 C 76.328125 107.996094 76.179688 107.847656 76.179688 107.847656 L 75.738281 108.144531 C 75.886719 108.144531 75.886719 108.292969 75.886719 108.441406 Z M 75.886719 108.441406 " clip-rule="nonzero"/></clipPath><clipPath id="0202633448"><path d="M 75 107.40625 L 76.476562 107.40625 L 76.476562 108.882812 L 75 108.882812 Z M 75 107.40625 " clip-rule="nonzero"/></clipPath><clipPath id="ca0dd5f004"><path d="M 75.886719 108.441406 L 76.328125 108.144531 C 76.328125 107.996094 76.179688 107.847656 76.179688 107.847656 L 75.738281 108.144531 C 75.886719 108.144531 75.886719 108.292969 75.886719 108.441406 Z M 75.886719 108.441406 " clip-rule="nonzero"/></clipPath><clipPath id="eab965afc5"><path d="M 92 93 L 92.714844 93 L 92.714844 94.117188 L 92 94.117188 Z M 92 93 " clip-rule="nonzero"/></clipPath><clipPath id="505f64cabe"><path d="M 92.421875 93.972656 L 92.125 94.117188 C 92.125 94.117188 92.273438 94.117188 92.273438 94.117188 L 92.421875 93.972656 C 92.570312 93.972656 92.570312 93.972656 92.421875 93.972656 Z M 92.421875 93.972656 " clip-rule="nonzero"/></clipPath><clipPath id="6e32e67c75"><path d="M 96 96 L 97 96 L 97 97 L 96 97 Z M 96 96 " clip-rule="nonzero"/></clipPath><clipPath id="7a7b00c153"><path d="M 96.261719 96.777344 L 96.703125 96.480469 C 96.703125 96.332031 96.554688 96.1875 96.554688 96.1875 L 96.113281 96.480469 C 96.113281 96.480469 96.261719 96.628906 96.261719 96.777344 Z M 96.261719 96.777344 " clip-rule="nonzero"/></clipPath><clipPath id="eb9b8437a4"><path d="M 68 17.625 L 88 17.625 L 88 37 L 68 37 Z M 68 17.625 " clip-rule="nonzero"/></clipPath></defs><path fill="#a9c838" d="M 147.488281 81.421875 C 150 82.898438 150 85.113281 147.488281 86.589844 L 79.578125 126.007812 C 77.066406 127.484375 73.226562 127.484375 70.71875 126.007812 L 2.511719 86.589844 C 0 85.113281 0 82.898438 2.511719 81.421875 L 70.421875 42.003906 C 72.785156 40.527344 76.773438 40.527344 79.28125 42.003906 Z M 147.488281 81.421875 " fill-opacity="1" fill-rule="nonzero"/><g clip-path="url(#4b5471674c)"><path fill="#3f7337" d="M 149.410156 84.078125 L 149.410156 89.097656 C 149.410156 89.984375 148.820312 91.019531 147.636719 91.609375 L 79.722656 131.027344 C 77.214844 132.355469 73.375 132.355469 70.867188 131.027344 L 2.511719 91.757812 C 1.328125 91.019531 0.589844 90.132812 0.589844 89.246094 L 0.589844 84.078125 C 0.589844 84.964844 1.179688 86 2.511719 86.738281 L 70.867188 126.15625 C 73.375 127.632812 77.214844 127.632812 79.722656 126.15625 L 147.636719 86.738281 C 148.820312 85.851562 149.410156 84.964844 149.410156 84.078125 Z M 149.410156 84.078125 " fill-opacity="1" fill-rule="nonzero"/></g><path fill="#3d3d3d" d="M 85.335938 115.230469 L 85.335938 115.675781 L 87.253906 116.855469 L 92.421875 113.902344 L 92.421875 113.460938 L 87.253906 116.414062 Z M 85.335938 115.230469 " fill-opacity="1" fill-rule="nonzero"/><path fill="#bfbfbf" d="M 85.335938 115.230469 L 87.253906 116.414062 L 92.421875 113.460938 L 90.355469 112.277344 Z M 85.335938 115.230469 " fill-opacity="1" fill-rule="nonzero"/><path fill="#3d3d3d" d="M 79.429688 111.835938 L 79.429688 112.277344 L 81.347656 113.460938 L 86.367188 110.507812 L 86.367188 110.0625 L 81.347656 112.867188 Z M 79.429688 111.835938 " fill-opacity="1" fill-rule="nonzero"/><path fill="#bfbfbf" d="M 79.429688 111.835938 L 81.347656 112.867188 L 86.367188 110.0625 L 84.449219 108.882812 Z M 79.429688 111.835938 " fill-opacity="1" fill-rule="nonzero"/><path fill="#f05a47" d="M 87.695312 105.929688 L 87.695312 114.492188 L 88.878906 115.230469 L 88.878906 106.667969 Z M 87.695312 105.929688 " fill-opacity="1" fill-rule="nonzero"/><path fill="#f05a47" d="M 87.695312 105.929688 L 88.730469 106.519531 L 89.910156 105.929688 L 88.730469 105.191406 Z M 87.695312 105.929688 " fill-opacity="1" fill-rule="nonzero"/><path fill="#f05a47" d="M 81.496094 102.386719 L 81.496094 111.097656 L 82.675781 111.6875 L 82.675781 103.125 Z M 81.496094 102.386719 " fill-opacity="1" fill-rule="nonzero"/><path fill="#ad2c24" d="M 82.675781 103.125 L 82.675781 111.6875 L 83.859375 111.097656 L 83.859375 102.386719 Z M 82.675781 103.125 " fill-opacity="1" fill-rule="nonzero"/><path fill="#f27675" d="M 81.496094 102.386719 L 82.675781 103.125 L 83.859375 102.386719 L 82.675781 101.796875 Z M 81.496094 102.386719 " fill-opacity="1" fill-rule="nonzero"/><path fill="#f05a47" d="M 81.9375 101.207031 C 82.085938 101.058594 82.234375 101.058594 82.382812 101.207031 L 89.910156 105.636719 C 89.765625 105.636719 89.617188 105.636719 89.46875 105.636719 C 89.171875 105.78125 88.878906 106.226562 88.878906 106.667969 C 88.878906 106.816406 88.878906 106.964844 89.027344 107.109375 L 81.496094 102.683594 C 81.347656 102.683594 81.347656 102.535156 81.347656 102.238281 C 81.347656 101.796875 81.496094 101.351562 81.9375 101.207031 Z M 81.9375 101.207031 " fill-opacity="1" fill-rule="nonzero"/><path fill="#ad2c24" d="M 88.878906 115.230469 L 90.058594 114.492188 L 90.058594 105.929688 C 90.058594 105.488281 89.765625 105.339844 89.46875 105.636719 C 89.171875 105.78125 88.878906 106.226562 88.878906 106.667969 C 88.730469 106.519531 88.878906 115.230469 88.878906 115.230469 Z M 88.878906 115.230469 " fill-opacity="1" fill-rule="nonzero"/><path fill="#704e2c" d="M 65.992188 110.949219 L 65.992188 111.835938 L 71.753906 115.230469 L 102.460938 97.515625 L 102.460938 96.628906 L 71.753906 114.34375 Z M 65.992188 110.949219 " fill-opacity="1" fill-rule="nonzero"/><path fill="#fde99f" d="M 65.992188 110.949219 L 71.753906 114.34375 L 102.460938 96.628906 L 96.703125 93.234375 Z M 65.992188 110.949219 " fill-opacity="1" fill-rule="nonzero"/><path fill="#ad2c24" d="M 72.046875 109.179688 L 72.488281 108.882812 L 72.488281 106.226562 L 72.195312 106.519531 Z M 72.046875 109.179688 " fill-opacity="1" fill-rule="nonzero"/><path fill="#ad2c24" d="M 72.195312 105.636719 L 71.753906 105.929688 C 71.753906 105.929688 71.898438 105.929688 71.898438 105.929688 Z M 72.195312 105.636719 " fill-opacity="1" fill-rule="nonzero"/><g clip-path="url(#551bd7b9a2)"><g clip-path="url(#41bc346612)"><path fill="#ad2c24" d="M 71.898438 105.929688 L 72.34375 105.636719 L 71.898438 105.929688 " fill-opacity="1" fill-rule="nonzero"/><path fill="#ad2c24" d="M 71.898438 105.929688 L 72.34375 105.636719 L 71.898438 105.929688 " fill-opacity="1" fill-rule="nonzero"/><path fill="#ad2c24" d="M 71.898438 105.929688 L 72.34375 105.636719 L 72.195312 105.636719 L 71.898438 105.929688 " fill-opacity="1" fill-rule="nonzero"/><path fill="#ad2c24" d="M 71.898438 105.929688 L 72.195312 105.636719 L 71.898438 105.929688 " fill-opacity="1" fill-rule="nonzero"/><path fill="#ad2c24" d="M 71.898438 105.929688 L 72.195312 105.636719 L 71.898438 105.929688 " fill-opacity="1" fill-rule="nonzero"/><path fill="#ad2c24" d="M 71.898438 105.929688 L 72.195312 105.636719 L 71.898438 105.929688 " fill-opacity="1" fill-rule="nonzero"/><path fill="#ad2c24" d="M 71.898438 105.929688 L 72.195312 105.636719 L 71.753906 105.929688 L 71.898438 105.929688 " fill-opacity="1" fill-rule="nonzero"/><path fill="#ad2c24" d="M 71.753906 105.929688 L 72.195312 105.636719 L 71.753906 105.929688 " fill-opacity="1" fill-rule="nonzero"/><path fill="#ad2c24" d="M 71.753906 105.929688 L 72.195312 105.636719 L 71.753906 105.929688 " fill-opacity="1" fill-rule="nonzero"/><path fill="#ad2c24" d="M 71.753906 105.929688 L 72.195312 105.636719 L 71.753906 105.929688 " fill-opacity="1" fill-rule="nonzero"/></g></g><path fill="#ad2c24" d="M 75.738281 108.144531 L 76.179688 107.847656 L 72.34375 105.636719 L 71.898438 105.929688 Z M 75.738281 108.144531 " fill-opacity="1" fill-rule="nonzero"/><path fill="#ad2c24" d="M 75.886719 111.394531 L 76.328125 111.097656 L 76.328125 108.292969 L 75.886719 108.441406 Z M 75.886719 111.394531 " fill-opacity="1" fill-rule="nonzero"/><path fill="#ad2c24" d="M 75.886719 108.441406 L 76.328125 108.144531 C 76.328125 107.996094 76.179688 107.847656 76.179688 107.847656 L 75.738281 108.144531 C 75.886719 108.144531 75.886719 108.292969 75.886719 108.441406 Z M 75.886719 108.441406 " fill-opacity="1" fill-rule="nonzero"/><g clip-path="url(#6f8aa24a94)"><g clip-path="url(#198fe4d31e)"><path fill="#ad2c24" d="M 75.886719 108.441406 L 76.328125 108.144531 L 75.886719 108.441406 " fill-opacity="1" fill-rule="nonzero"/><path fill="#ad2c24" d="M 75.886719 108.441406 L 76.328125 108.144531 L 75.886719 108.441406 " fill-opacity="1" fill-rule="nonzero"/><path fill="#ad2c24" d="M 75.886719 108.441406 L 76.328125 108.144531 L 75.886719 108.441406 " fill-opacity="1" fill-rule="nonzero"/><path fill="#ad2c24" d="M 75.886719 108.441406 L 76.328125 108.144531 L 75.886719 108.292969 L 75.886719 108.441406 " fill-opacity="1" fill-rule="nonzero"/><path fill="#ad2c24" d="M 75.886719 108.292969 L 76.328125 108.144531 L 75.886719 108.292969 " fill-opacity="1" fill-rule="nonzero"/><path fill="#ad2c24" d="M 75.886719 108.292969 L 76.328125 108.144531 L 75.886719 108.292969 " fill-opacity="1" fill-rule="nonzero"/><path fill="#ad2c24" d="M 75.886719 108.292969 L 76.328125 108.144531 L 75.886719 108.292969 " fill-opacity="1" fill-rule="nonzero"/></g></g><g clip-path="url(#0202633448)"><g clip-path="url(#ca0dd5f004)"><path fill="#ad2c24" d="M 75.886719 108.292969 L 76.328125 108.144531 L 76.328125 107.996094 L 75.886719 108.292969 " fill-opacity="1" fill-rule="nonzero"/><path fill="#ad2c24" d="M 75.886719 108.292969 L 76.328125 107.996094 L 75.886719 108.292969 " fill-opacity="1" fill-rule="nonzero"/><path fill="#ad2c24" d="M 75.886719 108.292969 L 76.328125 107.996094 L 75.886719 108.292969 " fill-opacity="1" fill-rule="nonzero"/><path fill="#ad2c24" d="M 75.886719 108.292969 L 76.328125 107.996094 L 75.886719 108.292969 " fill-opacity="1" fill-rule="nonzero"/><path fill="#ad2c24" d="M 75.886719 108.292969 L 76.328125 107.996094 L 76.179688 107.996094 L 75.886719 108.144531 L 75.886719 108.292969 " fill-opacity="1" fill-rule="nonzero"/><path fill="#ad2c24" d="M 75.886719 108.144531 L 76.179688 107.996094 L 75.886719 108.144531 " fill-opacity="1" fill-rule="nonzero"/><path fill="#ad2c24" d="M 75.886719 108.144531 L 76.328125 107.847656 L 75.886719 108.144531 " fill-opacity="1" fill-rule="nonzero"/><path fill="#ad2c24" d="M 75.886719 108.144531 L 76.328125 107.847656 L 75.886719 108.144531 C 75.738281 108.144531 75.738281 108.144531 75.886719 108.144531 " fill-opacity="1" fill-rule="nonzero"/></g></g><path fill="#ef6572" d="M 71.898438 105.929688 C 71.753906 105.929688 71.753906 105.929688 71.753906 106.078125 L 71.753906 109.03125 L 72.195312 109.324219 L 72.195312 106.667969 L 75.589844 108.585938 L 75.589844 111.246094 L 76.035156 111.539062 L 76.035156 108.585938 C 76.035156 108.441406 75.886719 108.292969 75.886719 108.292969 Z M 71.898438 105.929688 " fill-opacity="1" fill-rule="nonzero"/><path fill="#ad2c24" d="M 92.421875 97.367188 L 92.714844 97.21875 L 92.863281 94.5625 L 92.421875 94.710938 Z M 92.421875 97.367188 " fill-opacity="1" fill-rule="nonzero"/><path fill="#ad2c24" d="M 92.421875 93.972656 L 92.125 94.117188 C 92.125 94.117188 92.273438 94.117188 92.273438 94.117188 L 92.421875 93.972656 C 92.570312 93.972656 92.570312 93.972656 92.421875 93.972656 Z M 92.421875 93.972656 " fill-opacity="1" fill-rule="nonzero"/><g clip-path="url(#eab965afc5)"><g clip-path="url(#505f64cabe)"><path fill="#ad2c24" d="M 92.273438 94.265625 L 92.714844 93.972656 L 92.273438 94.265625 C 92.273438 94.117188 92.273438 94.265625 92.273438 94.265625 " fill-opacity="1" fill-rule="nonzero"/><path fill="#ad2c24" d="M 92.125 94.117188 L 92.570312 93.824219 L 92.125 94.117188 " fill-opacity="1" fill-rule="nonzero"/><path fill="#ad2c24" d="M 92.125 94.117188 L 92.570312 93.972656 L 92.125 94.117188 " fill-opacity="1" fill-rule="nonzero"/><path fill="#ad2c24" d="M 92.125 94.117188 L 92.570312 93.972656 L 92.125 94.117188 " fill-opacity="1" fill-rule="nonzero"/><path fill="#ad2c24" d="M 92.125 94.117188 L 92.570312 93.972656 L 92.125 94.117188 " fill-opacity="1" fill-rule="nonzero"/><path fill="#ad2c24" d="M 92.125 94.117188 L 92.570312 93.972656 L 92.125 94.117188 " fill-opacity="1" fill-rule="nonzero"/><path fill="#ad2c24" d="M 92.125 94.117188 L 92.570312 93.972656 L 92.421875 93.972656 L 92.125 94.117188 " fill-opacity="1" fill-rule="nonzero"/><path fill="#ad2c24" d="M 92.125 94.117188 L 92.421875 93.972656 L 92.125 94.117188 " fill-opacity="1" fill-rule="nonzero"/><path fill="#ad2c24" d="M 92.125 94.117188 L 92.421875 93.972656 L 92.125 94.117188 " fill-opacity="1" fill-rule="nonzero"/><path fill="#ad2c24" d="M 92.125 94.117188 L 92.421875 93.972656 L 92.125 94.117188 " fill-opacity="1" fill-rule="nonzero"/></g></g><path fill="#ad2c24" d="M 96.113281 96.480469 L 96.40625 96.1875 L 92.570312 93.972656 L 92.273438 94.265625 Z M 96.113281 96.480469 " fill-opacity="1" fill-rule="nonzero"/><path fill="#ad2c24" d="M 96.261719 99.582031 L 96.554688 99.433594 L 96.554688 96.480469 L 96.261719 96.777344 Z M 96.261719 99.582031 " fill-opacity="1" fill-rule="nonzero"/><path fill="#ad2c24" d="M 96.261719 96.777344 L 96.703125 96.480469 C 96.703125 96.332031 96.554688 96.1875 96.554688 96.1875 L 96.113281 96.480469 C 96.113281 96.480469 96.261719 96.628906 96.261719 96.777344 Z M 96.261719 96.777344 " fill-opacity="1" fill-rule="nonzero"/><g clip-path="url(#6e32e67c75)"><g clip-path="url(#7a7b00c153)"><path fill="#ad2c24" d="M 96.261719 96.777344 L 96.703125 96.480469 L 96.261719 96.777344 " fill-opacity="1" fill-rule="nonzero"/><path fill="#ad2c24" d="M 96.261719 96.777344 L 96.703125 96.480469 L 96.261719 96.777344 C 96.261719 96.628906 96.261719 96.628906 96.261719 96.777344 " fill-opacity="1" fill-rule="nonzero"/><path fill="#ad2c24" d="M 96.261719 96.628906 L 96.554688 96.480469 L 96.261719 96.628906 " fill-opacity="1" fill-rule="nonzero"/><path fill="#ad2c24" d="M 96.261719 96.628906 L 96.554688 96.480469 L 96.261719 96.628906 " fill-opacity="1" fill-rule="nonzero"/><path fill="#ad2c24" d="M 96.261719 96.628906 L 96.554688 96.480469 L 96.554688 96.332031 L 96.261719 96.628906 " fill-opacity="1" fill-rule="nonzero"/><path fill="#ad2c24" d="M 96.261719 96.628906 L 96.554688 96.332031 L 96.261719 96.628906 " fill-opacity="1" fill-rule="nonzero"/><path fill="#ad2c24" d="M 96.261719 96.628906 L 96.554688 96.332031 L 96.261719 96.628906 " fill-opacity="1" fill-rule="nonzero"/><path fill="#ad2c24" d="M 96.261719 96.628906 L 96.554688 96.332031 L 96.261719 96.628906 " fill-opacity="1" fill-rule="nonzero"/><path fill="#ad2c24" d="M 96.261719 96.628906 L 96.554688 96.332031 L 96.261719 96.628906 " fill-opacity="1" fill-rule="nonzero"/><path fill="#ad2c24" d="M 96.261719 96.628906 L 96.554688 96.332031 L 96.113281 96.480469 L 96.261719 96.628906 " fill-opacity="1" fill-rule="nonzero"/><path fill="#ad2c24" d="M 96.113281 96.480469 L 96.554688 96.332031 L 96.113281 96.480469 " fill-opacity="1" fill-rule="nonzero"/><path fill="#ad2c24" d="M 96.113281 96.480469 L 96.554688 96.332031 L 96.113281 96.480469 " fill-opacity="1" fill-rule="nonzero"/><path fill="#ad2c24" d="M 96.113281 96.480469 L 96.554688 96.332031 L 96.113281 96.480469 " fill-opacity="1" fill-rule="nonzero"/><path fill="#ad2c24" d="M 96.113281 96.480469 L 96.554688 96.1875 L 96.113281 96.480469 " fill-opacity="1" fill-rule="nonzero"/><path fill="#ad2c24" d="M 96.113281 96.480469 L 96.554688 96.1875 L 96.113281 96.480469 " fill-opacity="1" fill-rule="nonzero"/></g></g><path fill="#ef6572" d="M 92.273438 94.265625 C 92.125 94.265625 92.125 94.265625 92.125 94.414062 L 92.125 97.367188 L 92.570312 97.664062 L 92.570312 95.003906 L 95.964844 96.925781 L 95.964844 99.582031 L 96.40625 99.878906 L 96.40625 96.925781 C 96.40625 96.777344 96.261719 96.628906 96.261719 96.628906 Z M 92.273438 94.265625 " fill-opacity="1" fill-rule="nonzero"/><path fill="#d7d7d7" d="M 68.945312 56.175781 L 67.324219 55.289062 L 67.324219 57.800781 L 68.945312 58.832031 Z M 68.945312 56.175781 " fill-opacity="1" fill-rule="nonzero"/><path fill="#d7d7d7" d="M 68.945312 51.304688 L 67.324219 50.417969 L 67.324219 53.8125 L 68.945312 54.699219 Z M 68.945312 51.304688 " fill-opacity="1" fill-rule="nonzero"/><path fill="#d7d7d7" d="M 68.945312 46.285156 L 67.324219 45.398438 L 67.324219 48.941406 L 68.945312 49.828125 Z M 68.945312 46.285156 " fill-opacity="1" fill-rule="nonzero"/><path fill="#d7d7d7" d="M 68.945312 54.699219 L 67.324219 53.8125 L 58.464844 58.980469 L 59.941406 59.867188 Z M 68.945312 54.699219 " fill-opacity="1" fill-rule="nonzero"/><path fill="#d7d7d7" d="M 68.800781 41.414062 L 67.324219 40.527344 L 67.324219 43.921875 L 68.945312 44.808594 Z M 68.800781 41.414062 " fill-opacity="1" fill-rule="nonzero"/><path fill="#d7d7d7" d="M 68.945312 49.828125 L 67.324219 48.941406 L 58.464844 54.109375 L 59.941406 54.996094 Z M 68.945312 49.828125 " fill-opacity="1" fill-rule="nonzero"/><path fill="#d7d7d7" d="M 68.945312 44.808594 L 67.324219 43.921875 L 58.464844 49.089844 L 59.941406 49.976562 Z M 68.945312 44.808594 " fill-opacity="1" fill-rule="nonzero"/><path fill="#d7d7d7" d="M 68.800781 39.9375 L 67.324219 39.050781 L 58.316406 44.21875 L 59.941406 45.101562 Z M 68.800781 39.9375 " fill-opacity="1" fill-rule="nonzero"/><path fill="#d7d7d7" d="M 68.800781 35.0625 L 67.324219 34.179688 L 58.316406 39.34375 L 59.941406 40.230469 Z M 68.800781 35.0625 " fill-opacity="1" fill-rule="nonzero"/><path fill="#4f4d4d" d="M 59.941406 35.210938 L 68.945312 30.042969 L 70.277344 29.304688 L 70.421875 57.949219 L 69.09375 58.6875 L 69.09375 56.027344 L 60.089844 61.195312 L 60.089844 63.851562 L 58.761719 64.589844 L 58.613281 35.949219 Z M 59.941406 54.996094 L 68.945312 49.828125 L 68.945312 46.433594 L 59.941406 51.597656 L 59.941406 54.996094 M 59.941406 49.976562 L 68.945312 44.808594 L 68.945312 41.414062 L 59.941406 46.578125 L 59.941406 49.976562 M 59.941406 45.101562 L 68.945312 39.9375 L 68.945312 36.539062 L 59.941406 41.707031 L 59.941406 45.101562 M 59.941406 59.867188 L 68.945312 54.699219 L 68.945312 51.304688 L 59.941406 56.472656 L 59.941406 59.867188 M 59.941406 40.230469 L 68.945312 35.0625 L 68.945312 31.667969 L 59.941406 36.835938 L 59.941406 40.230469 " fill-opacity="1" fill-rule="nonzero"/><path fill="#d7d7d7" d="M 58.613281 35.949219 L 57.136719 35.0625 L 57.136719 63.707031 L 58.761719 64.589844 Z M 58.613281 35.949219 " fill-opacity="1" fill-rule="nonzero"/><path fill="#b4892d" d="M 75.589844 43.035156 L 75.589844 65.183594 L 74.261719 66.066406 L 74.261719 43.773438 Z M 75.589844 43.035156 " fill-opacity="1" fill-rule="nonzero"/><path fill="#fdc281" d="M 74.261719 43.773438 L 74.261719 66.066406 L 72.785156 65.183594 L 72.933594 43.035156 Z M 74.261719 43.773438 " fill-opacity="1" fill-rule="nonzero"/><path fill="#80bc41" d="M 75.589844 43.035156 L 74.261719 43.773438 L 72.933594 43.035156 L 74.261719 42.152344 Z M 75.589844 43.035156 " fill-opacity="1" fill-rule="nonzero"/><path fill="#b4892d" d="M 86.367188 36.6875 L 86.367188 58.980469 L 85.039062 59.71875 L 85.039062 37.574219 Z M 86.367188 36.6875 " fill-opacity="1" fill-rule="nonzero"/><path fill="#fdc281" d="M 85.039062 37.574219 L 85.039062 59.71875 L 83.710938 58.980469 L 83.710938 36.6875 Z M 85.039062 37.574219 " fill-opacity="1" fill-rule="nonzero"/><path fill="#80bc41" d="M 86.367188 36.6875 L 85.039062 37.574219 L 83.710938 36.6875 L 85.039062 35.949219 Z M 86.367188 36.6875 " fill-opacity="1" fill-rule="nonzero"/><path fill="#0382a0" d="M 74.261719 43.480469 L 88.582031 35.210938 L 88.582031 36.835938 L 74.261719 45.101562 L 56.988281 35.210938 L 56.988281 33.585938 Z M 74.261719 43.480469 " fill-opacity="1" fill-rule="nonzero"/><path fill="#7bd3f7" d="M 56.988281 33.585938 L 74.261719 43.480469 L 87.105469 35.800781 L 69.832031 25.761719 Z M 56.988281 33.585938 " fill-opacity="1" fill-rule="nonzero"/><path fill="#b4892d" d="M 70.867188 18.972656 L 70.867188 26.351562 L 69.539062 27.089844 L 69.683594 19.855469 Z M 70.867188 18.972656 " fill-opacity="1" fill-rule="nonzero"/><g clip-path="url(#eb9b8437a4)"><path fill="#b4892d" d="M 68.945312 18.382812 C 68.945312 18.382812 68.800781 18.382812 68.945312 18.382812 L 70.128906 17.644531 C 70.277344 17.644531 70.277344 17.644531 70.421875 17.644531 L 86.8125 27.238281 C 87.105469 27.386719 87.253906 27.683594 87.253906 27.976562 L 87.253906 35.949219 L 85.925781 36.6875 L 85.925781 28.714844 C 85.925781 28.421875 85.777344 28.125 85.480469 27.976562 L 69.09375 18.382812 C 69.09375 18.382812 68.945312 18.382812 68.945312 18.382812 Z M 68.945312 18.382812 " fill-opacity="1" fill-rule="nonzero"/></g><path fill="#b4892d" d="M 76.035156 21.925781 L 75.886719 29.453125 L 74.703125 30.191406 L 74.703125 22.664062 Z M 76.035156 21.925781 " fill-opacity="1" fill-rule="nonzero"/><path fill="#b4892d" d="M 81.792969 25.320312 L 81.792969 32.703125 L 80.460938 33.441406 L 80.460938 26.058594 Z M 81.792969 25.320312 " fill-opacity="1" fill-rule="nonzero"/><path fill="#fdc281" d="M 85.480469 27.976562 L 69.09375 18.382812 C 68.800781 18.234375 68.652344 18.382812 68.652344 18.675781 L 68.652344 26.648438 L 69.539062 27.089844 L 69.683594 19.710938 L 75 22.808594 L 73.964844 22.21875 L 75 22.808594 L 76.917969 23.84375 L 77.804688 24.285156 L 85.039062 28.421875 L 85.039062 35.800781 L 85.925781 36.246094 L 85.925781 28.273438 C 85.925781 28.421875 85.777344 28.125 85.480469 27.976562 Z M 85.480469 27.976562 " fill-opacity="1" fill-rule="nonzero"/><path fill="#fdc281" d="M 73.820312 29.601562 L 74.703125 30.191406 L 74.703125 22.664062 L 73.820312 22.21875 Z M 73.820312 29.601562 " fill-opacity="1" fill-rule="nonzero"/><path fill="#fdc281" d="M 79.578125 32.996094 L 80.460938 33.441406 L 80.460938 26.058594 L 79.578125 25.613281 Z M 79.578125 32.996094 " fill-opacity="1" fill-rule="nonzero"/><path fill="#e64e56" d="M 99.210938 74.1875 L 110.875 67.25 C 105.855469 64.445312 102.3125 59.867188 98.03125 51.304688 C 93.75 42.742188 86.074219 36.835938 85.777344 36.6875 L 76.773438 42.003906 C 77.066406 42.296875 81.9375 49.828125 86.21875 58.242188 C 90.648438 66.953125 94.339844 71.382812 99.210938 74.1875 Z M 99.210938 74.1875 " fill-opacity="1" fill-rule="nonzero"/><path fill="#9b1c1f" d="M 111.320312 67.542969 L 112.351562 66.953125 L 112.351562 64.589844 L 111.320312 65.183594 Z M 111.320312 67.542969 " fill-opacity="1" fill-rule="nonzero"/><path fill="#ef6572" d="M 111.320312 65.183594 L 112.351562 64.589844 C 107.332031 61.785156 103.789062 57.210938 99.507812 48.648438 C 95.226562 40.082031 87.550781 34.179688 87.253906 33.882812 L 85.925781 34.324219 C 86.21875 34.621094 94.191406 40.675781 98.472656 49.238281 C 102.757812 57.800781 106.300781 62.378906 111.320312 65.183594 Z M 111.320312 65.183594 " fill-opacity="1" fill-rule="nonzero"/><path fill="#9b1c1f" d="M 85.925781 34.179688 L 85.925781 36.539062 C 86.074219 36.539062 93.160156 42.152344 96.851562 49.679688 C 100.246094 56.617188 104.378906 63.558594 111.320312 67.542969 L 111.320312 65.183594 C 106.300781 62.378906 102.757812 57.800781 98.472656 49.238281 C 94.191406 40.675781 86.21875 34.472656 85.925781 34.179688 Z M 85.925781 34.179688 " fill-opacity="1" fill-rule="nonzero"/><path fill="#9b1c1f" d="M 99.65625 74.484375 L 100.6875 73.894531 L 100.6875 71.53125 L 99.65625 72.121094 Z M 99.65625 74.484375 " fill-opacity="1" fill-rule="nonzero"/><path fill="#9b1c1f" d="M 110.875 67.398438 L 111.320312 67.542969 L 100.6875 73.894531 L 100.6875 73.449219 Z M 110.875 67.398438 " fill-opacity="1" fill-rule="nonzero"/><path fill="#3d3d3d" d="M 130.363281 74.777344 C 130.511719 74.632812 130.660156 74.632812 130.808594 74.777344 L 140.257812 80.390625 C 140.109375 80.390625 139.960938 80.390625 139.8125 80.390625 C 139.519531 80.535156 139.222656 80.980469 139.222656 81.421875 C 139.222656 81.570312 139.222656 81.71875 139.371094 81.71875 L 129.921875 76.105469 C 129.773438 76.105469 129.773438 75.960938 129.773438 75.8125 C 129.773438 75.515625 129.921875 75.074219 130.363281 74.777344 Z M 130.363281 74.777344 " fill-opacity="1" fill-rule="nonzero"/><path fill="#929393" d="M 117.667969 72.859375 C 110.136719 77.289062 103.9375 86.148438 103.9375 92.789062 L 104.96875 92.199219 C 104.96875 86.148438 110.582031 78.027344 117.667969 74.039062 C 124.605469 70.054688 130.363281 71.53125 130.363281 77.582031 L 131.398438 76.992188 C 131.398438 70.347656 125.195312 68.578125 117.667969 72.859375 Z M 117.667969 72.859375 " fill-opacity="1" fill-rule="nonzero"/><path fill="#282828" d="M 128.003906 72.5625 L 126.96875 71.972656 C 128.59375 72.859375 129.476562 74.632812 129.476562 76.992188 L 130.511719 77.582031 C 130.511719 75.222656 129.476562 73.449219 128.003906 72.5625 Z M 128.003906 72.5625 " fill-opacity="1" fill-rule="nonzero"/><path fill="#282828" d="M 116.78125 72.269531 C 121.210938 69.757812 125.195312 69.316406 127.707031 70.792969 L 128.738281 71.382812 C 126.230469 69.90625 122.242188 70.347656 117.816406 72.859375 C 110.285156 77.289062 104.085938 86.148438 104.085938 92.789062 L 103.050781 92.199219 C 103.050781 85.554688 109.105469 76.699219 116.78125 72.269531 Z M 116.78125 72.269531 " fill-opacity="1" fill-rule="nonzero"/><path fill="#3d3d3d" d="M 105.117188 88.65625 C 105.265625 88.507812 105.414062 88.507812 105.5625 88.65625 L 115.011719 94.265625 C 114.863281 94.265625 114.714844 94.265625 114.566406 94.265625 C 114.273438 94.414062 113.976562 94.855469 113.976562 95.300781 C 113.976562 95.449219 113.976562 95.59375 114.125 95.59375 L 104.675781 89.984375 C 104.527344 89.984375 104.527344 89.835938 104.527344 89.691406 C 104.527344 89.246094 104.824219 88.804688 105.117188 88.65625 Z M 105.117188 88.65625 " fill-opacity="1" fill-rule="nonzero"/><path fill="#3d3d3d" d="M 107.039062 83.785156 C 107.183594 83.636719 107.332031 83.636719 107.480469 83.785156 L 116.929688 89.394531 C 116.78125 89.394531 116.632812 89.394531 116.484375 89.394531 C 116.191406 89.542969 115.894531 89.984375 115.894531 90.429688 C 115.894531 90.574219 115.894531 90.722656 116.042969 90.722656 L 106.59375 85.261719 C 106.445312 85.261719 106.445312 85.113281 106.445312 84.964844 C 106.445312 84.523438 106.742188 84.078125 107.039062 83.785156 Z M 107.039062 83.785156 " fill-opacity="1" fill-rule="nonzero"/><path fill="#3d3d3d" d="M 110.285156 79.207031 C 110.433594 79.058594 110.582031 79.058594 110.726562 79.207031 L 120.175781 84.816406 C 120.03125 84.816406 119.882812 84.816406 119.734375 84.816406 C 119.4375 84.964844 119.144531 85.410156 119.144531 85.851562 C 119.144531 86 119.144531 86.148438 119.292969 86.148438 L 109.84375 80.535156 C 109.695312 80.535156 109.695312 80.390625 109.695312 80.242188 C 109.695312 79.945312 109.988281 79.503906 110.285156 79.207031 Z M 110.285156 79.207031 " fill-opacity="1" fill-rule="nonzero"/><path fill="#3d3d3d" d="M 113.976562 75.515625 C 114.125 75.367188 114.273438 75.367188 114.417969 75.515625 L 123.867188 81.128906 C 123.71875 81.128906 123.574219 81.128906 123.425781 81.128906 C 123.128906 81.273438 122.835938 81.71875 122.835938 82.160156 C 122.835938 82.308594 122.835938 82.457031 122.980469 82.457031 L 113.535156 76.84375 C 113.386719 76.84375 113.386719 76.699219 113.386719 76.550781 C 113.386719 76.253906 113.679688 75.8125 113.976562 75.515625 Z M 113.976562 75.515625 " fill-opacity="1" fill-rule="nonzero"/><path fill="#3d3d3d" d="M 118.847656 72.417969 C 118.996094 72.269531 119.144531 72.269531 119.292969 72.417969 L 128.738281 78.027344 C 128.59375 78.027344 128.445312 78.027344 128.296875 78.027344 C 128.003906 78.175781 127.707031 78.617188 127.707031 79.058594 C 127.707031 79.207031 127.707031 79.355469 127.855469 79.355469 L 118.40625 73.746094 C 118.257812 73.746094 118.257812 73.597656 118.257812 73.449219 C 118.257812 73.007812 118.554688 72.5625 118.847656 72.417969 Z M 118.847656 72.417969 " fill-opacity="1" fill-rule="nonzero"/><path fill="#3d3d3d" d="M 125.195312 70.644531 C 125.34375 70.496094 125.492188 70.496094 125.640625 70.644531 L 135.089844 76.253906 C 134.941406 76.253906 134.792969 76.253906 134.644531 76.253906 C 134.351562 76.402344 134.054688 76.84375 134.054688 77.140625 C 134.054688 77.289062 134.054688 77.4375 134.203125 77.4375 L 124.753906 71.972656 C 124.605469 71.972656 124.605469 71.824219 124.605469 71.679688 C 124.605469 71.234375 124.902344 70.792969 125.195312 70.644531 Z M 125.195312 70.644531 " fill-opacity="1" fill-rule="nonzero"/><path fill="#929393" d="M 127.410156 78.765625 C 119.882812 83.195312 113.679688 92.050781 113.679688 98.695312 L 114.714844 98.105469 C 114.714844 92.050781 120.324219 83.933594 127.410156 79.945312 C 134.351562 75.960938 140.109375 77.4375 140.109375 83.488281 L 141.140625 82.898438 C 141.140625 76.253906 134.941406 74.335938 127.410156 78.765625 Z M 127.410156 78.765625 " fill-opacity="1" fill-rule="nonzero"/><path fill="#282828" d="M 137.746094 78.46875 L 136.710938 77.878906 C 138.335938 78.765625 139.222656 80.535156 139.222656 82.898438 L 140.257812 83.488281 C 140.109375 80.980469 139.222656 79.355469 137.746094 78.46875 Z M 137.746094 78.46875 " fill-opacity="1" fill-rule="nonzero"/><path fill="#282828" d="M 126.378906 78.175781 C 130.808594 75.664062 134.792969 75.222656 137.304688 76.699219 L 138.335938 77.289062 C 135.828125 75.8125 131.839844 76.253906 127.410156 78.765625 C 119.882812 83.195312 113.679688 92.050781 113.679688 98.695312 L 112.648438 98.105469 C 112.796875 91.460938 118.847656 82.601562 126.378906 78.175781 Z M 126.378906 78.175781 " fill-opacity="1" fill-rule="nonzero"/><path fill="#3d3d3d" d="M 90.796875 85.851562 L 90.796875 87.328125 C 90.796875 89.246094 89.46875 91.167969 86.957031 92.644531 C 81.792969 95.59375 73.523438 95.59375 68.355469 92.644531 C 65.699219 91.167969 64.519531 89.246094 64.519531 87.179688 L 64.519531 85.703125 C 64.519531 87.621094 65.847656 89.691406 68.355469 91.167969 C 73.523438 94.117188 81.792969 94.117188 86.957031 91.167969 C 89.46875 89.835938 90.796875 87.917969 90.796875 85.851562 Z M 90.796875 85.851562 " fill-opacity="1" fill-rule="nonzero"/><path fill="#b0afb0" d="M 91.386719 84.816406 L 91.386719 85.703125 C 91.386719 87.769531 90.058594 89.835938 87.402344 91.3125 C 82.085938 94.414062 73.226562 94.414062 67.914062 91.3125 C 65.257812 89.691406 63.78125 87.621094 63.78125 85.554688 L 63.78125 84.671875 C 63.78125 86.738281 65.109375 88.804688 67.914062 90.429688 C 73.375 93.527344 82.085938 93.527344 87.402344 90.429688 C 90.058594 88.804688 91.386719 86.886719 91.386719 84.816406 Z M 91.386719 84.816406 " fill-opacity="1" fill-rule="nonzero"/><path fill="#e8e8e8" d="M 87.253906 79.058594 C 92.714844 82.160156 92.714844 87.328125 87.402344 90.429688 C 82.085938 93.527344 73.226562 93.527344 67.914062 90.429688 C 62.597656 87.328125 62.449219 82.308594 67.914062 79.058594 C 73.226562 75.960938 81.9375 75.960938 87.253906 79.058594 Z M 87.253906 79.058594 " fill-opacity="1" fill-rule="nonzero"/><path fill="#4787c7" d="M 71.160156 67.691406 C 70.128906 67.101562 68.945312 67.839844 68.945312 69.019531 L 68.945312 81.273438 C 68.945312 81.570312 69.242188 81.863281 69.539062 81.863281 C 69.832031 81.863281 70.128906 81.570312 70.128906 81.273438 L 70.128906 69.019531 C 70.128906 68.871094 70.277344 68.726562 70.421875 68.871094 L 77.65625 72.710938 L 77.65625 71.53125 Z M 71.160156 67.691406 " fill-opacity="1" fill-rule="nonzero"/><path fill="#704e2c" d="M 87.695312 70.203125 L 77.804688 71.679688 L 77.804688 73.007812 L 87.84375 71.53125 C 88.289062 71.53125 88.582031 71.824219 88.582031 72.121094 L 88.582031 82.898438 C 88.582031 83.195312 88.878906 83.488281 89.171875 83.488281 C 89.46875 83.488281 89.765625 83.195312 89.765625 82.898438 L 89.765625 71.972656 C 89.765625 70.941406 88.878906 70.054688 87.695312 70.203125 Z M 87.695312 70.203125 " fill-opacity="1" fill-rule="nonzero"/><path fill="#020202" d="M 78.839844 76.84375 L 78.839844 84.964844 C 78.839844 85.113281 78.691406 85.261719 78.542969 85.410156 C 78.101562 85.703125 77.511719 85.703125 77.066406 85.410156 C 76.917969 85.261719 76.773438 85.113281 76.773438 84.964844 L 76.773438 76.84375 C 76.773438 76.992188 76.917969 77.140625 77.066406 77.289062 C 77.511719 77.582031 78.101562 77.582031 78.542969 77.289062 C 78.691406 77.140625 78.839844 76.992188 78.839844 76.84375 Z M 78.839844 76.84375 " fill-opacity="1" fill-rule="nonzero"/><path fill="#4f4d4d" d="M 79.429688 68.871094 L 79.429688 83.636719 C 79.429688 83.933594 79.28125 84.078125 78.984375 84.375 C 78.394531 84.816406 77.363281 84.816406 76.625 84.375 C 76.328125 84.226562 76.179688 83.933594 76.179688 83.636719 L 76.179688 68.871094 C 76.179688 69.167969 76.328125 69.316406 76.625 69.609375 C 77.214844 70.054688 78.246094 70.054688 78.984375 69.609375 C 79.28125 69.316406 79.429688 69.167969 79.429688 68.871094 Z M 79.429688 68.871094 " fill-opacity="1" fill-rule="nonzero"/><path fill="#f1f1f1" d="M 78.984375 68.136719 C 79.578125 68.578125 79.578125 69.167969 78.984375 69.464844 C 78.394531 69.90625 77.363281 69.90625 76.625 69.464844 C 76.035156 69.019531 76.035156 68.429688 76.625 68.136719 C 77.214844 67.839844 78.394531 67.839844 78.984375 68.136719 Z M 78.984375 68.136719 " fill-opacity="1" fill-rule="nonzero"/><path fill="#589441" d="M 86.21875 75.515625 L 79.429688 71.824219 C 78.984375 71.53125 78.542969 71.972656 78.542969 72.417969 C 78.542969 72.710938 78.691406 72.859375 78.839844 73.007812 L 85.628906 76.699219 C 85.925781 76.84375 86.21875 77.289062 86.21875 77.582031 L 86.21875 88.804688 C 86.21875 89.097656 86.515625 89.394531 86.8125 89.394531 C 87.105469 89.394531 87.550781 89.097656 87.550781 88.804688 L 87.550781 77.582031 C 87.402344 76.699219 86.957031 75.960938 86.21875 75.515625 Z M 86.21875 75.515625 " fill-opacity="1" fill-rule="nonzero"/><path fill="#d22838" d="M 76.476562 71.382812 L 68.503906 72.121094 C 67.324219 72.269531 66.585938 73.300781 66.585938 74.335938 L 66.585938 88.359375 C 66.585938 88.65625 66.878906 88.953125 67.175781 88.953125 C 67.46875 88.953125 67.765625 88.65625 67.765625 88.359375 L 67.765625 74.335938 C 67.765625 73.746094 68.207031 73.300781 68.652344 73.300781 L 76.476562 72.5625 C 76.773438 72.5625 77.066406 72.269531 77.066406 71.972656 C 77.066406 71.679688 76.773438 71.382812 76.476562 71.382812 Z M 76.476562 71.382812 " fill-opacity="1" fill-rule="nonzero"/><path fill="#9b1c1f" d="M 31.300781 93.085938 L 31.300781 97.664062 L 9.007812 84.671875 L 9.007812 80.242188 Z M 31.300781 93.085938 " fill-opacity="1" fill-rule="nonzero"/><path fill="#dd454d" d="M 58.761719 77.140625 L 58.761719 81.71875 L 31.300781 97.664062 L 31.300781 93.085938 Z M 58.761719 77.140625 " fill-opacity="1" fill-rule="nonzero"/><path fill="#686868" d="M 36.320312 65.625 L 11.367188 80.242188 L 14.910156 82.308594 L 36.320312 69.464844 Z M 36.320312 65.625 " fill-opacity="1" fill-rule="nonzero"/><path fill="#3d3d3d" d="M 56.25 77.140625 L 36.320312 65.625 L 36.320312 69.464844 L 52.707031 79.207031 Z M 56.25 77.140625 " fill-opacity="1" fill-rule="nonzero"/><path fill="#d7d7d7" d="M 54.035156 78.46875 C 53.886719 77.289062 49.164062 75.222656 45.472656 71.972656 C 41.484375 68.578125 37.5 67.691406 36.464844 67.988281 C 34.988281 68.28125 27.460938 73.300781 22.589844 74.777344 C 19.339844 75.8125 16.09375 78.46875 12.84375 80.980469 L 31.445312 91.609375 Z M 54.035156 78.46875 " fill-opacity="1" fill-rule="nonzero"/><path fill="#ef6572" d="M 36.320312 64.296875 L 58.761719 77.140625 L 31.300781 93.085938 L 9.007812 80.242188 Z M 31.300781 91.757812 L 56.25 77.289062 L 36.320312 65.773438 L 11.367188 80.242188 L 31.300781 91.757812 " fill-opacity="1" fill-rule="nonzero"/><path fill="#b0afb0" d="M 25.246094 79.207031 L 25.246094 83.046875 C 25.246094 83.339844 25.097656 83.636719 24.65625 83.785156 C 23.917969 84.226562 22.734375 84.226562 21.996094 83.785156 C 21.703125 83.636719 21.40625 83.339844 21.40625 83.046875 L 21.40625 79.207031 C 21.40625 79.503906 21.554688 79.796875 21.996094 79.945312 C 22.734375 80.390625 23.917969 80.390625 24.65625 79.945312 C 25.097656 79.796875 25.246094 79.503906 25.246094 79.207031 Z M 25.246094 79.207031 " fill-opacity="1" fill-rule="nonzero"/><path fill="#e8e8e8" d="M 24.65625 78.46875 C 25.394531 78.914062 25.394531 79.503906 24.65625 79.945312 C 23.917969 80.390625 22.734375 80.390625 21.996094 79.945312 C 21.261719 79.503906 21.261719 78.914062 21.996094 78.46875 C 22.734375 78.027344 23.917969 78.027344 24.65625 78.46875 Z M 24.65625 78.46875 " fill-opacity="1" fill-rule="nonzero"/><path fill="#b0afb0" d="M 32.332031 80.535156 L 32.332031 85.261719 C 32.332031 85.554688 32.183594 85.851562 31.742188 86 C 31.003906 86.441406 29.824219 86.441406 29.085938 86 C 28.789062 85.851562 28.492188 85.554688 28.492188 85.261719 L 28.492188 80.535156 C 28.492188 80.832031 28.640625 81.128906 29.085938 81.273438 C 29.824219 81.71875 31.003906 81.71875 31.742188 81.273438 C 32.183594 80.980469 32.332031 80.683594 32.332031 80.535156 Z M 32.332031 80.535156 " fill-opacity="1" fill-rule="nonzero"/><path fill="#e8e8e8" d="M 31.742188 79.652344 C 32.480469 80.09375 32.480469 80.683594 31.742188 81.128906 C 31.003906 81.570312 29.824219 81.570312 29.085938 81.128906 C 28.347656 80.683594 28.347656 80.09375 29.085938 79.652344 C 29.96875 79.355469 31.152344 79.355469 31.742188 79.652344 Z M 31.742188 79.652344 " fill-opacity="1" fill-rule="nonzero"/><path fill="#d22838" d="M 39.125 76.550781 L 39.125 81.421875 C 39.125 81.71875 38.976562 82.160156 38.535156 82.308594 C 37.648438 82.898438 36.171875 82.898438 35.285156 82.308594 C 34.84375 82.011719 34.546875 81.71875 34.695312 81.421875 L 34.695312 76.550781 Z M 39.125 76.550781 " fill-opacity="1" fill-rule="nonzero"/><path fill="#686868" d="M 38.089844 75.8125 C 38.828125 76.253906 38.828125 76.84375 38.089844 77.289062 C 37.351562 77.730469 36.171875 77.730469 35.433594 77.289062 C 34.695312 76.84375 34.695312 76.253906 35.433594 75.8125 C 36.171875 75.367188 37.351562 75.367188 38.089844 75.8125 Z M 38.089844 75.8125 " fill-opacity="1" fill-rule="nonzero"/><path fill="#ef6572" d="M 38.386719 75.664062 C 39.273438 76.105469 39.273438 76.992188 38.386719 77.582031 C 37.5 78.175781 36.023438 78.175781 35.136719 77.582031 C 34.253906 77.140625 34.253906 76.253906 35.136719 75.664062 C 36.023438 75.222656 37.5 75.222656 38.386719 75.664062 Z M 35.582031 77.4375 C 36.320312 77.878906 37.5 77.878906 38.238281 77.4375 C 38.976562 76.992188 38.976562 76.402344 38.238281 75.960938 C 37.5 75.515625 36.320312 75.515625 35.582031 75.960938 C 34.84375 76.253906 34.84375 76.992188 35.582031 77.4375 " fill-opacity="1" fill-rule="nonzero"/><path fill="#4f4d4d" d="M 38.089844 75.8125 C 38.089844 75.8125 37.941406 75.8125 37.941406 75.664062 L 37.941406 77.289062 C 37.941406 77.289062 38.089844 77.289062 38.238281 77.140625 C 38.828125 76.992188 38.828125 76.253906 38.089844 75.8125 Z M 38.089844 75.8125 " fill-opacity="1" fill-rule="nonzero"/><path fill="#91684b" d="M 51.378906 98.253906 L 51.378906 108.882812 L 48.128906 110.65625 L 48.128906 100.171875 Z M 51.378906 98.253906 " fill-opacity="1" fill-rule="nonzero"/><path fill="#603f22" d="M 48.128906 100.171875 L 48.128906 110.65625 L 45.03125 108.882812 L 45.03125 98.253906 Z M 48.128906 100.171875 " fill-opacity="1" fill-rule="nonzero"/><path fill="#589441" d="M 55.660156 89.835938 L 55.660156 102.386719 L 48.128906 106.816406 L 48.277344 94.117188 Z M 55.660156 89.835938 " fill-opacity="1" fill-rule="nonzero"/><path fill="#3f7337" d="M 48.277344 94.117188 L 48.128906 106.816406 L 40.601562 102.386719 L 40.746094 89.835938 Z M 48.277344 94.117188 " fill-opacity="1" fill-rule="nonzero"/><path fill="#80bc41" d="M 55.660156 89.835938 L 48.277344 94.117188 L 40.746094 89.835938 L 48.128906 85.410156 Z M 55.660156 89.835938 " fill-opacity="1" fill-rule="nonzero"/><path fill="#91684b" d="M 59.351562 107.109375 L 59.351562 113.460938 L 57.429688 114.492188 L 57.429688 108.292969 Z M 59.351562 107.109375 " fill-opacity="1" fill-rule="nonzero"/><path fill="#603f22" d="M 57.429688 108.292969 L 57.429688 114.492188 L 55.511719 113.460938 L 55.511719 107.109375 Z M 57.429688 108.292969 " fill-opacity="1" fill-rule="nonzero"/><path fill="#589441" d="M 61.859375 100.910156 L 61.859375 109.621094 L 57.429688 112.132812 L 57.429688 103.421875 Z M 61.859375 100.910156 " fill-opacity="1" fill-rule="nonzero"/><path fill="#3f7337" d="M 57.429688 103.421875 L 57.429688 112.132812 L 53.003906 109.621094 L 53.003906 100.910156 Z M 57.429688 103.421875 " fill-opacity="1" fill-rule="nonzero"/><path fill="#80bc41" d="M 61.859375 100.910156 L 57.429688 103.421875 L 53.003906 100.910156 L 57.429688 98.253906 Z M 61.859375 100.910156 " fill-opacity="1" fill-rule="nonzero"/><path fill="#91684b" d="M 49.605469 58.390625 L 49.605469 65.921875 L 47.390625 67.25 L 47.390625 59.71875 Z M 49.605469 58.390625 " fill-opacity="1" fill-rule="nonzero"/><path fill="#603f22" d="M 47.390625 59.71875 L 47.390625 67.25 L 45.03125 65.921875 L 45.03125 58.390625 Z M 47.390625 59.71875 " fill-opacity="1" fill-rule="nonzero"/><path fill="#589441" d="M 52.707031 45.398438 L 52.707031 59.71875 L 47.390625 62.820312 L 47.390625 48.5 Z M 52.707031 45.398438 " fill-opacity="1" fill-rule="nonzero"/><path fill="#3f7337" d="M 47.390625 48.5 L 47.390625 62.820312 L 41.929688 59.71875 L 41.929688 45.398438 Z M 47.390625 48.5 " fill-opacity="1" fill-rule="nonzero"/><path fill="#80bc41" d="M 52.707031 45.398438 L 47.390625 48.5 L 41.929688 45.398438 L 47.390625 42.296875 Z M 52.707031 45.398438 " fill-opacity="1" fill-rule="nonzero"/><path fill="#d7d7d7" d="M 68.800781 30.191406 L 67.324219 29.160156 Z M 68.800781 30.191406 " fill-opacity="1" fill-rule="nonzero"/><path fill="#b4892d" d="M 59.203125 25.910156 L 59.203125 33.292969 L 57.875 34.03125 L 57.875 26.648438 Z M 59.203125 25.910156 " fill-opacity="1" fill-rule="nonzero"/><path fill="#b4892d" d="M 57.136719 25.320312 C 57.285156 25.171875 58.613281 24.433594 58.464844 24.582031 C 58.761719 24.433594 58.613281 24.582031 75.148438 34.179688 C 75.441406 34.324219 75.589844 34.621094 75.589844 34.917969 L 75.589844 42.890625 L 74.261719 43.628906 L 74.261719 35.65625 C 74.261719 35.359375 74.113281 35.0625 73.820312 34.917969 L 57.429688 25.46875 C 57.285156 25.320312 57.285156 25.320312 57.136719 25.320312 Z M 57.136719 25.320312 " fill-opacity="1" fill-rule="nonzero"/><path fill="#b4892d" d="M 64.222656 28.863281 L 64.222656 36.246094 L 62.894531 36.984375 L 63.042969 29.601562 Z M 64.222656 28.863281 " fill-opacity="1" fill-rule="nonzero"/><path fill="#b4892d" d="M 70.128906 32.257812 L 70.128906 39.640625 L 68.800781 40.378906 L 68.800781 32.996094 Z M 70.128906 32.257812 " fill-opacity="1" fill-rule="nonzero"/><path fill="#fdc281" d="M 73.820312 34.917969 L 57.429688 25.46875 C 57.136719 25.320312 56.988281 25.46875 56.988281 25.761719 L 56.988281 33.734375 L 57.875 34.179688 L 58.023438 26.796875 L 63.335938 29.898438 L 62.304688 29.160156 L 63.335938 29.75 L 65.257812 30.78125 L 66.140625 31.226562 L 73.375 35.359375 L 73.375 42.742188 L 74.261719 43.183594 L 74.261719 35.210938 C 74.261719 35.359375 73.964844 35.0625 73.820312 34.917969 Z M 73.820312 34.917969 " fill-opacity="1" fill-rule="nonzero"/><path fill="#fdc281" d="M 62.007812 36.539062 L 62.894531 36.984375 L 63.042969 29.601562 L 62.15625 29.160156 Z M 62.007812 36.539062 " fill-opacity="1" fill-rule="nonzero"/><path fill="#fdc281" d="M 67.914062 39.9375 L 68.800781 40.378906 L 68.800781 32.996094 L 67.914062 32.554688 Z M 67.914062 39.9375 " fill-opacity="1" fill-rule="nonzero"/><path fill="#ef6572" d="M 99.65625 72.121094 L 100.6875 71.53125 C 95.667969 68.726562 92.125 64.148438 87.84375 55.585938 C 83.5625 47.023438 75.886719 40.96875 75.589844 40.675781 L 74.261719 41.265625 C 74.558594 41.558594 82.53125 47.613281 86.8125 56.175781 C 91.09375 64.738281 94.636719 69.167969 99.65625 72.121094 Z M 99.65625 72.121094 " fill-opacity="1" fill-rule="nonzero"/><path fill="#9b1c1f" d="M 74.261719 41.117188 L 74.261719 43.480469 C 74.410156 43.480469 81.496094 49.089844 85.1875 56.617188 C 88.582031 63.558594 92.714844 70.496094 99.65625 74.484375 L 99.65625 72.121094 C 94.636719 69.316406 91.09375 64.738281 86.8125 56.175781 C 82.53125 47.464844 74.558594 41.414062 74.261719 41.117188 Z M 74.261719 41.117188 " fill-opacity="1" fill-rule="nonzero"/></svg>